{
    "patcher": {
        "fileversion": 1,
        "appversion": {
            "major": 9,
            "minor": 1,
            "revision": 1,
            "architecture": "x64",
            "modernui": 1
        },
        "classnamespace": "dsp.gen",
        "rect": [ 59.0, 118.0, 1075.0, 478.0 ],
        "boxes": [
            {
                "box": {
                    "id": "obj-7",
                    "maxclass": "newobj",
                    "numinlets": 1,
                    "numoutlets": 0,
                    "patching_rect": [ 1007.0, 482.0, 35.0, 22.0 ],
                    "text": "out 3"
                }
            },
            {
                "box": {
                    "id": "obj-6",
                    "maxclass": "newobj",
                    "numinlets": 1,
                    "numoutlets": 0,
                    "patching_rect": [ 526.0, 482.0, 35.0, 22.0 ],
                    "text": "out 2"
                }
            },
            {
                "box": {
                    "code": "\r\nParam arneodo_a(-5.5);\r\nParam arneodo_b(3.5);\r\nParam arneodo_c(-1);\r\n\r\nParam x_offset(0);\r\nParam y_offset(0);\r\nParam z_offset(0);\r\nParam gain(0.1);\r\n\r\nHistory a(); \r\nHistory b();\r\nHistory c();\r\n\r\nHistory dt(0.01);\r\n\r\n\r\nHistory x(0.001);\r\nHistory y(0.001);\r\nHistory z(0.001);\r\n\r\nif (in1 != 0){\r\n\t\t\r\n\ta = arneodo_a;\r\n\tb = arneodo_b;\r\n\tc = arneodo_c;\r\n\t\t\r\n\tx = x + dt * y;\n\ty = y + dt * z;\n\tz = z + dt * (-a * x - b * y - z + c * pow(x, 3));\r\n\t\r\n\t\r\n\tif(isnan(x) || isnan(y) || isnan(z)) {\r\n\t\tx = 0.001;\r\n    \ty = 0.001;\r\n\t\tz = 0.001;\r\n\t}\r\n\t\r\n}\r\n\r\n\r\nout1 = tanh(x * gain + x_offset);\r\nout2 = tanh(y * gain + y_offset);\r\nout3 = tanh(z * gain + z_offset);\r\n",
                    "fontface": 0,
                    "fontname": "<Monospaced>",
                    "fontsize": 12.0,
                    "id": "obj-5",
                    "maxclass": "codebox",
                    "numinlets": 1,
                    "numoutlets": 3,
                    "outlettype": [ "", "", "" ],
                    "patching_rect": [ 50.0, 43.0, 971.0, 357.0 ]
                }
            },
            {
                "box": {
                    "id": "obj-1",
                    "maxclass": "newobj",
                    "numinlets": 0,
                    "numoutlets": 1,
                    "outlettype": [ "" ],
                    "patching_rect": [ 50.0, 14.0, 28.0, 22.0 ],
                    "text": "in 1"
                }
            },
            {
                "box": {
                    "id": "obj-4",
                    "maxclass": "newobj",
                    "numinlets": 1,
                    "numoutlets": 0,
                    "patching_rect": [ 50.0, 482.0, 35.0, 22.0 ],
                    "text": "out 1"
                }
            }
        ],
        "lines": [
            {
                "patchline": {
                    "destination": [ "obj-5", 0 ],
                    "source": [ "obj-1", 0 ]
                }
            },
            {
                "patchline": {
                    "destination": [ "obj-4", 0 ],
                    "source": [ "obj-5", 0 ]
                }
            },
            {
                "patchline": {
                    "destination": [ "obj-6", 0 ],
                    "source": [ "obj-5", 1 ]
                }
            },
            {
                "patchline": {
                    "destination": [ "obj-7", 0 ],
                    "source": [ "obj-5", 2 ]
                }
            }
        ]
    }
}