{
    "patcher": {
        "fileversion": 1,
        "appversion": {
            "major": 9,
            "minor": 1,
            "revision": 1,
            "architecture": "x64",
            "modernui": 1
        },
        "classnamespace": "dsp.gen",
        "rect": [ 694.0, 104.0, 606.0, 681.0 ],
        "boxes": [
            {
                "box": {
                    "id": "obj-3",
                    "maxclass": "newobj",
                    "numinlets": 0,
                    "numoutlets": 1,
                    "outlettype": [ "" ],
                    "patching_rect": [ 567.0, 14.0, 28.0, 22.0 ],
                    "text": "in 3"
                }
            },
            {
                "box": {
                    "code": "Param mode(0, min=0, max=2);\r\nParam blend(0.5, min=0, max=1);\n\n\na = clamp(in1, -1, 1);\nb = clamp(in2, -1, 1);\n\n\ny = 0;\n\n// Linear mix\nif (mode == 0) {\n    y = mix(a, b, clamp(blend, 0, 1));\n}\n\n// AND/OR morph\nif (mode == 1) {\r\n    au = 0.5 * (a + 1);\n    bu = 0.5 * (b + 1);\n    andv = au * bu;\n    orv  = au + bu - au * bu;\n    yu   = mix(andv, orv, clamp(blend, 0, 1));  \n    y    = 2 * yu - 1;                          \n}\n\r\n// CHOP based on sig3\r\nif (mode == 2){\r\n    // pretent blend is bipolar\r\n    b = (blend * 2.0) - 1.0;\r\n    if(in3 > b){\r\n        y = in1;\r\n    } else{\r\n        y = in2;\r\n    }\r\n}\r\n    \r\n\n\nout1 = y;",
                    "fontface": 0,
                    "fontname": "<Monospaced>",
                    "fontsize": 12.0,
                    "id": "obj-5",
                    "maxclass": "codebox",
                    "numinlets": 3,
                    "numoutlets": 1,
                    "outlettype": [ "" ],
                    "patching_rect": [ 50.0, 55.0, 536.0, 823.0 ]
                }
            },
            {
                "box": {
                    "id": "obj-1",
                    "maxclass": "newobj",
                    "numinlets": 0,
                    "numoutlets": 1,
                    "outlettype": [ "" ],
                    "patching_rect": [ 50.0, 14.0, 28.0, 22.0 ],
                    "text": "in 1"
                }
            },
            {
                "box": {
                    "id": "obj-2",
                    "maxclass": "newobj",
                    "numinlets": 0,
                    "numoutlets": 1,
                    "outlettype": [ "" ],
                    "patching_rect": [ 308.5, 14.0, 28.0, 22.0 ],
                    "text": "in 2"
                }
            },
            {
                "box": {
                    "id": "obj-4",
                    "maxclass": "newobj",
                    "numinlets": 1,
                    "numoutlets": 0,
                    "patching_rect": [ 46.5, 736.0, 35.0, 22.0 ],
                    "text": "out 1"
                }
            }
        ],
        "lines": [
            {
                "patchline": {
                    "destination": [ "obj-5", 0 ],
                    "source": [ "obj-1", 0 ]
                }
            },
            {
                "patchline": {
                    "destination": [ "obj-5", 1 ],
                    "source": [ "obj-2", 0 ]
                }
            },
            {
                "patchline": {
                    "destination": [ "obj-5", 2 ],
                    "source": [ "obj-3", 0 ]
                }
            },
            {
                "patchline": {
                    "destination": [ "obj-4", 0 ],
                    "source": [ "obj-5", 0 ]
                }
            }
        ],
        "toolbarexclusions": [ "calendar" ]
    }
}