{
    "patcher": {
        "fileversion": 1,
        "appversion": {
            "major": 9,
            "minor": 1,
            "revision": 1,
            "architecture": "x64",
            "modernui": 1
        },
        "classnamespace": "box",
        "rect": [ 190.0, 146.0, 956.0, 735.0 ],
        "openinpresentation": 1,
        "boxes": [
            {
                "box": {
                    "id": "obj-10",
                    "maxclass": "newobj",
                    "numinlets": 1,
                    "numoutlets": 1,
                    "outlettype": [ "bang" ],
                    "patching_rect": [ 768.0, 123.0, 58.0, 22.0 ],
                    "text": "loadbang"
                }
            },
            {
                "box": {
                    "id": "obj-8",
                    "maxclass": "newobj",
                    "numinlets": 1,
                    "numoutlets": 4,
                    "outlettype": [ "", "", "", "" ],
                    "patching_rect": [ 412.0, 22.0, 56.0, 22.0 ],
                    "restore": {
                        "BlendAmt": [ 0.28 ],
                        "CombineType": [ 0 ]
                    },
                    "text": "autopattr",
                    "varname": "u000010222"
                }
            },
            {
                "box": {
                    "comment": "Blend Amt (0..1)",
                    "id": "obj-5",
                    "index": 4,
                    "maxclass": "inlet",
                    "numinlets": 0,
                    "numoutlets": 1,
                    "outlettype": [ "" ],
                    "patching_rect": [ 361.0, 72.0, 30.0, 30.0 ]
                }
            },
            {
                "box": {
                    "id": "obj-1",
                    "maxclass": "newobj",
                    "numinlets": 1,
                    "numoutlets": 1,
                    "outlettype": [ "" ],
                    "patching_rect": [ 494.0, 326.0, 85.0, 22.0 ],
                    "text": "prepend blend"
                }
            },
            {
                "box": {
                    "floatoutput": 1,
                    "id": "obj-14",
                    "knobcolor": [ 0.952941176470588, 0.447058823529412, 0.172549019607843, 1.0 ],
                    "maxclass": "slider",
                    "numinlets": 1,
                    "numoutlets": 1,
                    "outlettype": [ "" ],
                    "parameter_enable": 0,
                    "patching_rect": [ 494.0, 274.0, 141.0, 24.0 ],
                    "presentation": 1,
                    "presentation_rect": [ 68.0, 71.0, 116.0, 24.0 ],
                    "size": 1.0,
                    "varname": "BlendAmt"
                }
            },
            {
                "box": {
                    "id": "obj-12",
                    "maxclass": "newobj",
                    "numinlets": 1,
                    "numoutlets": 1,
                    "outlettype": [ "" ],
                    "patching_rect": [ 494.0, 210.0, 86.0, 22.0 ],
                    "text": "prepend mode"
                }
            },
            {
                "box": {
                    "id": "obj-9",
                    "items": [ "Mix", ",", "AND/OR", ",", "Chop" ],
                    "maxclass": "umenu",
                    "numinlets": 1,
                    "numoutlets": 3,
                    "outlettype": [ "int", "", "" ],
                    "parameter_enable": 0,
                    "patching_rect": [ 494.0, 173.0, 100.0, 22.0 ],
                    "presentation": 1,
                    "presentation_rect": [ 0.0, 72.0, 66.0, 22.0 ],
                    "valuepopuplabel": 1,
                    "varname": "CombineType"
                }
            },
            {
                "box": {
                    "activebgcolor": [ 0.156862745098039, 0.156862745098039, 0.156862745098039, 0.0 ],
                    "activelinecolor": [ 0.42745098039215684, 0.8431372549019608, 1.0, 1.0 ],
                    "id": "obj-20",
                    "maxclass": "live.scope~",
                    "numinlets": 2,
                    "numoutlets": 1,
                    "outlettype": [ "bang" ],
                    "patching_rect": [ 489.0, 64.0, 184.0, 68.0 ],
                    "presentation": 1,
                    "presentation_rect": [ 0.0, 0.0, 184.0, 68.0 ]
                }
            },
            {
                "box": {
                    "activebgcolor": [ 0.156862745098039, 0.156862745098039, 0.156862745098039, 0.0 ],
                    "activelinecolor": [ 1.0, 0.34509803921568627, 0.2980392156862745, 1.0 ],
                    "id": "obj-21",
                    "maxclass": "live.scope~",
                    "numinlets": 2,
                    "numoutlets": 1,
                    "outlettype": [ "bang" ],
                    "patching_rect": [ 25.0, 223.0, 184.0, 68.0 ],
                    "presentation": 1,
                    "presentation_rect": [ 0.0, 0.0, 184.0, 68.0 ]
                }
            },
            {
                "box": {
                    "activebgcolor": [ 0.0, 0.0, 0.0, 0.0 ],
                    "activelinecolor": [ 0.0, 0.8549019607843137, 0.2823529411764706, 1.0 ],
                    "id": "obj-22",
                    "maxclass": "live.scope~",
                    "numinlets": 2,
                    "numoutlets": 1,
                    "outlettype": [ "bang" ],
                    "patching_rect": [ 21.0, 53.0, 184.0, 68.0 ],
                    "presentation": 1,
                    "presentation_rect": [ 0.0, 0.0, 184.0, 68.0 ]
                }
            },
            {
                "box": {
                    "id": "obj-7",
                    "maxclass": "newobj",
                    "numinlets": 3,
                    "numoutlets": 1,
                    "outlettype": [ "signal" ],
                    "patching_rect": [ 207.0, 199.0, 124.0, 22.0 ],
                    "text": "gen~ combineSignals"
                }
            },
            {
                "box": {
                    "comment": "Output Signal",
                    "id": "obj-6",
                    "index": 1,
                    "maxclass": "outlet",
                    "numinlets": 1,
                    "numoutlets": 0,
                    "patching_rect": [ 207.0, 331.0, 30.0, 30.0 ]
                }
            },
            {
                "box": {
                    "comment": "Signal Input 3",
                    "id": "obj-4",
                    "index": 3,
                    "maxclass": "inlet",
                    "numinlets": 0,
                    "numoutlets": 1,
                    "outlettype": [ "signal" ],
                    "patching_rect": [ 312.0, 72.0, 30.0, 30.0 ]
                }
            },
            {
                "box": {
                    "comment": "Signal Input 2",
                    "id": "obj-3",
                    "index": 2,
                    "maxclass": "inlet",
                    "numinlets": 0,
                    "numoutlets": 1,
                    "outlettype": [ "signal" ],
                    "patching_rect": [ 259.5, 72.0, 30.0, 30.0 ]
                }
            },
            {
                "box": {
                    "comment": "Signal Input 1",
                    "id": "obj-2",
                    "index": 1,
                    "maxclass": "inlet",
                    "numinlets": 0,
                    "numoutlets": 1,
                    "outlettype": [ "signal" ],
                    "patching_rect": [ 207.0, 72.0, 30.0, 30.0 ]
                }
            }
        ],
        "lines": [
            {
                "patchline": {
                    "destination": [ "obj-7", 0 ],
                    "source": [ "obj-1", 0 ]
                }
            },
            {
                "patchline": {
                    "destination": [ "obj-14", 0 ],
                    "order": 0,
                    "source": [ "obj-10", 0 ]
                }
            },
            {
                "patchline": {
                    "destination": [ "obj-9", 0 ],
                    "order": 1,
                    "source": [ "obj-10", 0 ]
                }
            },
            {
                "patchline": {
                    "destination": [ "obj-7", 0 ],
                    "source": [ "obj-12", 0 ]
                }
            },
            {
                "patchline": {
                    "destination": [ "obj-1", 0 ],
                    "source": [ "obj-14", 0 ]
                }
            },
            {
                "patchline": {
                    "destination": [ "obj-21", 0 ],
                    "order": 1,
                    "source": [ "obj-2", 0 ]
                }
            },
            {
                "patchline": {
                    "destination": [ "obj-7", 0 ],
                    "order": 0,
                    "source": [ "obj-2", 0 ]
                }
            },
            {
                "patchline": {
                    "destination": [ "obj-22", 0 ],
                    "order": 1,
                    "source": [ "obj-3", 0 ]
                }
            },
            {
                "patchline": {
                    "destination": [ "obj-7", 1 ],
                    "order": 0,
                    "source": [ "obj-3", 0 ]
                }
            },
            {
                "patchline": {
                    "destination": [ "obj-7", 2 ],
                    "source": [ "obj-4", 0 ]
                }
            },
            {
                "patchline": {
                    "destination": [ "obj-14", 0 ],
                    "source": [ "obj-5", 0 ]
                }
            },
            {
                "patchline": {
                    "destination": [ "obj-20", 0 ],
                    "order": 0,
                    "source": [ "obj-7", 0 ]
                }
            },
            {
                "patchline": {
                    "destination": [ "obj-6", 0 ],
                    "order": 1,
                    "source": [ "obj-7", 0 ]
                }
            },
            {
                "patchline": {
                    "destination": [ "obj-12", 0 ],
                    "source": [ "obj-9", 0 ]
                }
            }
        ]
    }
}