{
    "patcher": {
        "fileversion": 1,
        "appversion": {
            "major": 9,
            "minor": 1,
            "revision": 1,
            "architecture": "x64",
            "modernui": 1
        },
        "classnamespace": "box",
        "rect": [ 333.0, 190.0, 1010.0, 807.0 ],
        "boxes": [
            {
                "box": {
                    "id": "obj-10",
                    "linecount": 9,
                    "maxclass": "comment",
                    "numinlets": 1,
                    "numoutlets": 0,
                    "patching_rect": [ 19.0, 54.0, 450.0, 141.0 ],
                    "text": "Building on one of cycling74s own tutorials\n\nhttps://cycling74.com/tutorials/winters-day-max-msp-gen-the-wavetank\n\nWe're using the attractor to explore the 3d space of the wavetables. Two parameters of the attractor are being slowly changed by a drunk walk and the amount that they're changing depends on the rpde measure. This means the system will slow or even stop when it stumbled upon perodic states (i.e. limit cycles).\n"
                }
            },
            {
                "box": {
                    "fontsize": 24.0,
                    "id": "obj-7",
                    "maxclass": "comment",
                    "numinlets": 1,
                    "numoutlets": 0,
                    "patching_rect": [ 19.0, 15.0, 442.0, 33.0 ],
                    "text": "Recurrence feedback wavetable Demo"
                }
            },
            {
                "box": {
                    "id": "obj-58",
                    "maxclass": "comment",
                    "numinlets": 1,
                    "numoutlets": 0,
                    "patching_rect": [ 277.0, 230.0, 150.0, 20.0 ],
                    "text": "reset",
                    "textcolor": [ 0.976470588235294, 0.254901960784314, 0.266666666666667, 1.0 ]
                }
            },
            {
                "box": {
                    "id": "obj-56",
                    "maxclass": "button",
                    "numinlets": 1,
                    "numoutlets": 1,
                    "outlettype": [ "bang" ],
                    "parameter_enable": 0,
                    "patching_rect": [ 248.0, 228.0, 24.0, 24.0 ]
                }
            },
            {
                "box": {
                    "id": "obj-54",
                    "maxclass": "message",
                    "numinlets": 2,
                    "numoutlets": 1,
                    "outlettype": [ "" ],
                    "patching_rect": [ 643.0, 251.0, 29.5, 22.0 ],
                    "text": "y 9"
                }
            },
            {
                "box": {
                    "id": "obj-51",
                    "maxclass": "message",
                    "numinlets": 2,
                    "numoutlets": 1,
                    "outlettype": [ "" ],
                    "patching_rect": [ 248.0, 261.0, 29.5, 22.0 ],
                    "text": "y 3"
                }
            },
            {
                "box": {
                    "id": "obj-36",
                    "maxclass": "live.scope~",
                    "numinlets": 2,
                    "numoutlets": 1,
                    "outlettype": [ "bang" ],
                    "patching_rect": [ 522.0, 665.0, 270.0, 63.0 ],
                    "samples": 5000.0
                }
            },
            {
                "box": {
                    "id": "obj-35",
                    "maxclass": "newobj",
                    "numinlets": 2,
                    "numoutlets": 1,
                    "outlettype": [ "float" ],
                    "patching_rect": [ 584.0, 346.0, 81.0, 22.0 ],
                    "text": "snapshot~ 10"
                }
            },
            {
                "box": {
                    "fontface": 0,
                    "fontname": "Arial",
                    "fontsize": 12.0,
                    "id": "obj-34",
                    "maxclass": "number~",
                    "mode": 2,
                    "numinlets": 2,
                    "numoutlets": 2,
                    "outlettype": [ "signal", "float" ],
                    "patching_rect": [ 598.0, 316.0, 98.2142847776413, 22.0 ],
                    "sig": 0.0
                }
            },
            {
                "box": {
                    "id": "obj-33",
                    "maxclass": "newobj",
                    "numinlets": 1,
                    "numoutlets": 1,
                    "outlettype": [ "signal" ],
                    "patching_rect": [ 584.0, 288.0, 329.0, 22.0 ],
                    "text": "gen~ @gen drunk @maxv 10. @y 9. @minv 0.8 @step 0.05"
                }
            },
            {
                "box": {
                    "id": "obj-27",
                    "maxclass": "newobj",
                    "numinlets": 1,
                    "numoutlets": 1,
                    "outlettype": [ "" ],
                    "patching_rect": [ 584.0, 375.0, 63.0, 22.0 ],
                    "text": "prepend e"
                }
            },
            {
                "box": {
                    "id": "obj-11",
                    "maxclass": "newobj",
                    "numinlets": 6,
                    "numoutlets": 1,
                    "outlettype": [ "signal" ],
                    "patching_rect": [ 512.0, 251.0, 124.0, 22.0 ],
                    "text": "scale~ 0.5 0.9 0. 100."
                }
            },
            {
                "box": {
                    "id": "obj-14",
                    "maxclass": "newobj",
                    "numinlets": 4,
                    "numoutlets": 2,
                    "outlettype": [ "signal", "signal" ],
                    "patching_rect": [ 69.0, 541.0, 349.33333333333326, 22.0 ],
                    "text": "gen~ @gen wavetank",
                    "varname": "gen~_AA[1]"
                }
            },
            {
                "box": {
                    "fontface": 0,
                    "fontname": "Arial",
                    "fontsize": 12.0,
                    "id": "obj-166",
                    "maxclass": "number~",
                    "mode": 2,
                    "numinlets": 2,
                    "numoutlets": 2,
                    "outlettype": [ "signal", "float" ],
                    "patching_rect": [ 569.0, 215.0, 56.0, 22.0 ],
                    "sig": 0.0
                }
            },
            {
                "box": {
                    "id": "obj-165",
                    "maxclass": "newobj",
                    "numinlets": 1,
                    "numoutlets": 3,
                    "outlettype": [ "signal", "signal", "signal" ],
                    "patching_rect": [ 512.0, 215.0, 52.0, 22.0 ],
                    "text": "spt.rpde"
                }
            },
            {
                "box": {
                    "id": "obj-164",
                    "maxclass": "newobj",
                    "numinlets": 1,
                    "numoutlets": 1,
                    "outlettype": [ "" ],
                    "patching_rect": [ 248.0, 375.0, 63.0, 22.0 ],
                    "text": "prepend a"
                }
            },
            {
                "box": {
                    "id": "obj-163",
                    "maxclass": "newobj",
                    "numinlets": 2,
                    "numoutlets": 1,
                    "outlettype": [ "float" ],
                    "patching_rect": [ 248.0, 346.0, 81.0, 22.0 ],
                    "text": "snapshot~ 10"
                }
            },
            {
                "box": {
                    "id": "obj-161",
                    "maxclass": "newobj",
                    "numinlets": 1,
                    "numoutlets": 1,
                    "outlettype": [ "signal" ],
                    "patching_rect": [ 248.0, 288.0, 329.0, 22.0 ],
                    "text": "gen~ @gen drunk @maxv 10. @y 3. @minv 0.8 @step 0.05"
                }
            },
            {
                "box": {
                    "fontface": 0,
                    "fontname": "Arial",
                    "fontsize": 12.0,
                    "id": "obj-153",
                    "maxclass": "number~",
                    "mode": 2,
                    "numinlets": 2,
                    "numoutlets": 2,
                    "outlettype": [ "signal", "float" ],
                    "patching_rect": [ 273.0, 316.0, 98.2142847776413, 22.0 ],
                    "sig": 0.0
                }
            },
            {
                "box": {
                    "bgmode": 0,
                    "border": 0,
                    "clickthrough": 0,
                    "enablehscroll": 0,
                    "enablevscroll": 0,
                    "id": "obj-23",
                    "lockeddragscroll": 0,
                    "lockedsize": 0,
                    "maxclass": "bpatcher",
                    "name": "AttractorDisplay.maxpat",
                    "numinlets": 3,
                    "numoutlets": 0,
                    "offset": [ 0.0, 0.0 ],
                    "patching_rect": [ 522.0, 461.0, 270.0, 202.0 ],
                    "viewvisibility": 1
                }
            },
            {
                "box": {
                    "id": "obj-21",
                    "maxclass": "newobj",
                    "numinlets": 6,
                    "numoutlets": 1,
                    "outlettype": [ "signal" ],
                    "patching_rect": [ 144.0, 466.0, 101.0, 22.0 ],
                    "text": "scale~ -1. 1. 0. 4."
                }
            },
            {
                "box": {
                    "id": "obj-20",
                    "maxclass": "newobj",
                    "numinlets": 6,
                    "numoutlets": 1,
                    "outlettype": [ "signal" ],
                    "patching_rect": [ 353.0, 466.0, 101.0, 22.0 ],
                    "text": "scale~ -1. 1. 0. 4."
                }
            },
            {
                "box": {
                    "id": "obj-19",
                    "maxclass": "newobj",
                    "numinlets": 6,
                    "numoutlets": 1,
                    "outlettype": [ "signal" ],
                    "patching_rect": [ 250.0, 466.0, 101.0, 22.0 ],
                    "text": "scale~ -1. 1. 0. 4."
                }
            },
            {
                "box": {
                    "id": "obj-6",
                    "maxclass": "newobj",
                    "numinlets": 1,
                    "numoutlets": 6,
                    "outlettype": [ "signal", "signal", "signal", "signal", "signal", "signal" ],
                    "patching_rect": [ 169.0, 406.0, 223.0, 22.0 ],
                    "text": "spt.attractor.dadras @sync_secondary 0"
                }
            },
            {
                "box": {
                    "clip_size": 1,
                    "display_range": [ -100.0, 6.0 ],
                    "id": "obj-4",
                    "lastchannelcount": 0,
                    "maxclass": "live.gain~",
                    "numinlets": 2,
                    "numoutlets": 5,
                    "outlettype": [ "signal", "signal", "", "float", "list" ],
                    "parameter_enable": 1,
                    "patching_rect": [ 40.0, 588.0, 48.0, 136.0 ],
                    "saved_attribute_attributes": {
                        "valueof": {
                            "parameter_longname": "live.gain~",
                            "parameter_mmax": 6.0,
                            "parameter_mmin": -70.0,
                            "parameter_modmode": 0,
                            "parameter_shortname": "live.gain~",
                            "parameter_type": 0,
                            "parameter_unitstyle": 4
                        }
                    },
                    "thickness": 9,
                    "varname": "live.gain~"
                }
            },
            {
                "box": {
                    "id": "obj-24",
                    "maxclass": "message",
                    "numinlets": 2,
                    "numoutlets": 1,
                    "outlettype": [ "" ],
                    "patching_rect": [ 19.0, 251.0, 48.0, 22.0 ],
                    "text": "replace"
                }
            },
            {
                "box": {
                    "id": "obj-18",
                    "maxclass": "ezdac~",
                    "numinlets": 2,
                    "numoutlets": 0,
                    "patching_rect": [ 40.0, 750.0, 45.0, 45.0 ]
                }
            },
            {
                "box": {
                    "id": "obj-8",
                    "maxclass": "newobj",
                    "numinlets": 2,
                    "numoutlets": 1,
                    "outlettype": [ "signal" ],
                    "patching_rect": [ 56.0, 466.0, 69.0, 22.0 ],
                    "text": "phasor~ 32"
                }
            },
            {
                "box": {
                    "buffername": "tables",
                    "id": "obj-3",
                    "maxclass": "waveform~",
                    "numinlets": 5,
                    "numoutlets": 6,
                    "outlettype": [ "float", "float", "float", "float", "list", "" ],
                    "patching_rect": [ 19.0, 311.0, 187.0, 71.0 ]
                }
            },
            {
                "box": {
                    "id": "obj-2",
                    "maxclass": "newobj",
                    "numinlets": 1,
                    "numoutlets": 2,
                    "outlettype": [ "float", "bang" ],
                    "patching_rect": [ 19.0, 284.0, 163.0, 22.0 ],
                    "text": "buffer~ tables wavetable.wav"
                }
            },
            {
                "box": {
                    "id": "obj-1",
                    "maxclass": "newobj",
                    "numinlets": 4,
                    "numoutlets": 2,
                    "outlettype": [ "signal", "signal" ],
                    "patching_rect": [ 56.0, 513.0, 349.33333333333326, 22.0 ],
                    "text": "gen~ @gen wavetank",
                    "varname": "gen~_AA"
                }
            }
        ],
        "lines": [
            {
                "patchline": {
                    "destination": [ "obj-4", 0 ],
                    "source": [ "obj-1", 0 ]
                }
            },
            {
                "patchline": {
                    "destination": [ "obj-161", 0 ],
                    "order": 1,
                    "source": [ "obj-11", 0 ]
                }
            },
            {
                "patchline": {
                    "destination": [ "obj-33", 0 ],
                    "order": 0,
                    "source": [ "obj-11", 0 ]
                }
            },
            {
                "patchline": {
                    "destination": [ "obj-4", 1 ],
                    "source": [ "obj-14", 0 ]
                }
            },
            {
                "patchline": {
                    "destination": [ "obj-153", 0 ],
                    "order": 0,
                    "source": [ "obj-161", 0 ]
                }
            },
            {
                "patchline": {
                    "destination": [ "obj-163", 0 ],
                    "order": 1,
                    "source": [ "obj-161", 0 ]
                }
            },
            {
                "patchline": {
                    "destination": [ "obj-164", 0 ],
                    "source": [ "obj-163", 0 ]
                }
            },
            {
                "patchline": {
                    "destination": [ "obj-6", 0 ],
                    "source": [ "obj-164", 0 ]
                }
            },
            {
                "patchline": {
                    "destination": [ "obj-11", 0 ],
                    "order": 1,
                    "source": [ "obj-165", 0 ]
                }
            },
            {
                "patchline": {
                    "destination": [ "obj-166", 0 ],
                    "midpoints": [ 521.5, 239.1484375, 568.75, 239.1484375, 568.75, 210.0, 578.5, 210.0 ],
                    "order": 0,
                    "source": [ "obj-165", 0 ]
                }
            },
            {
                "patchline": {
                    "destination": [ "obj-1", 3 ],
                    "order": 0,
                    "source": [ "obj-19", 0 ]
                }
            },
            {
                "patchline": {
                    "destination": [ "obj-14", 2 ],
                    "order": 1,
                    "source": [ "obj-19", 0 ]
                }
            },
            {
                "patchline": {
                    "destination": [ "obj-1", 2 ],
                    "order": 0,
                    "source": [ "obj-20", 0 ]
                }
            },
            {
                "patchline": {
                    "destination": [ "obj-14", 1 ],
                    "order": 1,
                    "source": [ "obj-20", 0 ]
                }
            },
            {
                "patchline": {
                    "destination": [ "obj-1", 1 ],
                    "order": 1,
                    "source": [ "obj-21", 0 ]
                }
            },
            {
                "patchline": {
                    "destination": [ "obj-14", 3 ],
                    "order": 0,
                    "source": [ "obj-21", 0 ]
                }
            },
            {
                "patchline": {
                    "destination": [ "obj-2", 0 ],
                    "source": [ "obj-24", 0 ]
                }
            },
            {
                "patchline": {
                    "destination": [ "obj-6", 0 ],
                    "source": [ "obj-27", 0 ]
                }
            },
            {
                "patchline": {
                    "destination": [ "obj-34", 0 ],
                    "order": 0,
                    "source": [ "obj-33", 0 ]
                }
            },
            {
                "patchline": {
                    "destination": [ "obj-35", 0 ],
                    "order": 1,
                    "source": [ "obj-33", 0 ]
                }
            },
            {
                "patchline": {
                    "destination": [ "obj-27", 0 ],
                    "source": [ "obj-35", 0 ]
                }
            },
            {
                "patchline": {
                    "destination": [ "obj-18", 1 ],
                    "source": [ "obj-4", 1 ]
                }
            },
            {
                "patchline": {
                    "destination": [ "obj-18", 0 ],
                    "source": [ "obj-4", 0 ]
                }
            },
            {
                "patchline": {
                    "destination": [ "obj-161", 0 ],
                    "source": [ "obj-51", 0 ]
                }
            },
            {
                "patchline": {
                    "destination": [ "obj-33", 0 ],
                    "source": [ "obj-54", 0 ]
                }
            },
            {
                "patchline": {
                    "destination": [ "obj-51", 0 ],
                    "order": 1,
                    "source": [ "obj-56", 0 ]
                }
            },
            {
                "patchline": {
                    "destination": [ "obj-54", 0 ],
                    "order": 0,
                    "source": [ "obj-56", 0 ]
                }
            },
            {
                "patchline": {
                    "destination": [ "obj-165", 0 ],
                    "order": 1,
                    "source": [ "obj-6", 3 ]
                }
            },
            {
                "patchline": {
                    "destination": [ "obj-19", 0 ],
                    "order": 0,
                    "source": [ "obj-6", 1 ]
                }
            },
            {
                "patchline": {
                    "destination": [ "obj-20", 0 ],
                    "order": 0,
                    "source": [ "obj-6", 2 ]
                }
            },
            {
                "patchline": {
                    "destination": [ "obj-21", 0 ],
                    "order": 0,
                    "source": [ "obj-6", 0 ]
                }
            },
            {
                "patchline": {
                    "destination": [ "obj-23", 2 ],
                    "order": 1,
                    "source": [ "obj-6", 2 ]
                }
            },
            {
                "patchline": {
                    "destination": [ "obj-23", 1 ],
                    "order": 1,
                    "source": [ "obj-6", 1 ]
                }
            },
            {
                "patchline": {
                    "destination": [ "obj-23", 0 ],
                    "order": 1,
                    "source": [ "obj-6", 0 ]
                }
            },
            {
                "patchline": {
                    "destination": [ "obj-36", 0 ],
                    "order": 0,
                    "source": [ "obj-6", 3 ]
                }
            },
            {
                "patchline": {
                    "destination": [ "obj-1", 0 ],
                    "order": 1,
                    "source": [ "obj-8", 0 ]
                }
            },
            {
                "patchline": {
                    "destination": [ "obj-14", 0 ],
                    "order": 0,
                    "source": [ "obj-8", 0 ]
                }
            }
        ],
        "parameters": {
            "obj-4": [ "live.gain~", "live.gain~", 0 ],
            "inherited_shortname": 1
        },
        "autosave": 0
    }
}