{
    "patcher": {
        "fileversion": 1,
        "appversion": {
            "major": 9,
            "minor": 1,
            "revision": 1,
            "architecture": "x64",
            "modernui": 1
        },
        "classnamespace": "box",
        "rect": [ 50.0, 99.0, 1083.0, 823.0 ],
        "boxes": [
            {
                "box": {
                    "attr": "e",
                    "id": "obj-29",
                    "maxclass": "attrui",
                    "numinlets": 1,
                    "numoutlets": 1,
                    "outlettype": [ "" ],
                    "parameter_enable": 0,
                    "patching_rect": [ 15.0, 195.0, 150.0, 22.0 ]
                }
            },
            {
                "box": {
                    "attr": "d",
                    "id": "obj-28",
                    "maxclass": "attrui",
                    "numinlets": 1,
                    "numoutlets": 1,
                    "outlettype": [ "" ],
                    "parameter_enable": 0,
                    "patching_rect": [ 15.0, 167.0, 150.0, 22.0 ]
                }
            },
            {
                "box": {
                    "attr": "c",
                    "id": "obj-27",
                    "maxclass": "attrui",
                    "numinlets": 1,
                    "numoutlets": 1,
                    "outlettype": [ "" ],
                    "parameter_enable": 0,
                    "patching_rect": [ 15.0, 141.0, 150.0, 22.0 ]
                }
            },
            {
                "box": {
                    "attr": "b",
                    "id": "obj-25",
                    "maxclass": "attrui",
                    "numinlets": 1,
                    "numoutlets": 1,
                    "outlettype": [ "" ],
                    "parameter_enable": 0,
                    "patching_rect": [ 15.0, 110.0, 150.0, 22.0 ]
                }
            },
            {
                "box": {
                    "id": "obj-23",
                    "maxclass": "newobj",
                    "numinlets": 1,
                    "numoutlets": 1,
                    "outlettype": [ "" ],
                    "patching_rect": [ 457.0, 315.0, 70.0, 22.0 ],
                    "text": "loadmess 1"
                }
            },
            {
                "box": {
                    "id": "obj-26",
                    "linecount": 8,
                    "maxclass": "comment",
                    "numinlets": 1,
                    "numoutlets": 0,
                    "patching_rect": [ 487.0, 110.0, 287.0, 127.0 ],
                    "text": "This demo shows a simple example of sending Midi messages out of Max to control some instrument/drum machine hosted elsewhere.\n\nIt also assumes the use of something like blackhole to route the attractors signals out as audio.\n\nhttps://existential.audio/blackhole/\n"
                }
            },
            {
                "box": {
                    "fontsize": 24.0,
                    "id": "obj-24",
                    "maxclass": "comment",
                    "numinlets": 1,
                    "numoutlets": 0,
                    "patching_rect": [ 487.5, 53.0, 286.0, 33.0 ],
                    "text": "MidiOut Demo"
                }
            },
            {
                "box": {
                    "id": "obj-22",
                    "maxclass": "newobj",
                    "numinlets": 3,
                    "numoutlets": 0,
                    "patching_rect": [ 135.0, 300.0, 65.0, 22.0 ],
                    "text": "dac~ 1 2 3"
                }
            },
            {
                "box": {
                    "bgmode": 0,
                    "border": 0,
                    "clickthrough": 0,
                    "enablehscroll": 0,
                    "enablevscroll": 0,
                    "id": "obj-21",
                    "lockeddragscroll": 0,
                    "lockedsize": 0,
                    "maxclass": "bpatcher",
                    "name": "ToExternalMidi.maxpat",
                    "numinlets": 1,
                    "numoutlets": 0,
                    "offset": [ 0.0, 0.0 ],
                    "patching_rect": [ 654.0, 1038.0, 101.0, 48.0 ],
                    "varname": "ToExternalMidi[5]",
                    "viewvisibility": 1
                }
            },
            {
                "box": {
                    "bgmode": 0,
                    "border": 0,
                    "clickthrough": 0,
                    "enablehscroll": 0,
                    "enablevscroll": 0,
                    "id": "obj-20",
                    "lockeddragscroll": 0,
                    "lockedsize": 0,
                    "maxclass": "bpatcher",
                    "name": "ToExternalMidi.maxpat",
                    "numinlets": 1,
                    "numoutlets": 0,
                    "offset": [ 0.0, 0.0 ],
                    "patching_rect": [ 525.0, 1038.0, 101.0, 48.0 ],
                    "varname": "ToExternalMidi[4]",
                    "viewvisibility": 1
                }
            },
            {
                "box": {
                    "bgmode": 0,
                    "border": 0,
                    "clickthrough": 0,
                    "enablehscroll": 0,
                    "enablevscroll": 0,
                    "id": "obj-18",
                    "lockeddragscroll": 0,
                    "lockedsize": 0,
                    "maxclass": "bpatcher",
                    "name": "ToExternalMidi.maxpat",
                    "numinlets": 1,
                    "numoutlets": 0,
                    "offset": [ 0.0, 0.0 ],
                    "patching_rect": [ 398.0, 1038.0, 101.0, 48.0 ],
                    "varname": "ToExternalMidi[3]",
                    "viewvisibility": 1
                }
            },
            {
                "box": {
                    "bgmode": 0,
                    "border": 0,
                    "clickthrough": 0,
                    "enablehscroll": 0,
                    "enablevscroll": 0,
                    "id": "obj-17",
                    "lockeddragscroll": 0,
                    "lockedsize": 0,
                    "maxclass": "bpatcher",
                    "name": "ToExternalMidi.maxpat",
                    "numinlets": 1,
                    "numoutlets": 0,
                    "offset": [ 0.0, 0.0 ],
                    "patching_rect": [ 270.0, 1038.0, 101.0, 48.0 ],
                    "varname": "ToExternalMidi[2]",
                    "viewvisibility": 1
                }
            },
            {
                "box": {
                    "bgmode": 0,
                    "border": 0,
                    "clickthrough": 0,
                    "enablehscroll": 0,
                    "enablevscroll": 0,
                    "id": "obj-16",
                    "lockeddragscroll": 0,
                    "lockedsize": 0,
                    "maxclass": "bpatcher",
                    "name": "ToExternalMidi.maxpat",
                    "numinlets": 1,
                    "numoutlets": 0,
                    "offset": [ 0.0, 0.0 ],
                    "patching_rect": [ 143.0, 1038.0, 101.0, 48.0 ],
                    "varname": "ToExternalMidi[1]",
                    "viewvisibility": 1
                }
            },
            {
                "box": {
                    "bgmode": 0,
                    "border": 0,
                    "clickthrough": 0,
                    "enablehscroll": 0,
                    "enablevscroll": 0,
                    "id": "obj-15",
                    "lockeddragscroll": 0,
                    "lockedsize": 0,
                    "maxclass": "bpatcher",
                    "name": "ToExternalMidi.maxpat",
                    "numinlets": 1,
                    "numoutlets": 0,
                    "offset": [ 0.0, 0.0 ],
                    "patching_rect": [ 14.0, 1038.0, 101.0, 48.0 ],
                    "varname": "ToExternalMidi",
                    "viewvisibility": 1
                }
            },
            {
                "box": {
                    "id": "obj-14",
                    "maxclass": "newobj",
                    "numinlets": 1,
                    "numoutlets": 1,
                    "outlettype": [ "" ],
                    "patching_rect": [ 525.0, 269.0, 230.0, 22.0 ],
                    "saved_object_attributes": {
                        "client_rect": [ 1057, 45, 1440, 407 ],
                        "parameter_enable": 0,
                        "parameter_mappable": 0,
                        "storage_rect": [ 583, 69, 1034, 197 ]
                    },
                    "text": "pattrstorage midiOutDemo @savemode 2",
                    "varname": "midiOutDemo"
                }
            },
            {
                "box": {
                    "bubblesize": 16,
                    "fontsize": 12.0,
                    "id": "obj-13",
                    "maxclass": "preset",
                    "numinlets": 1,
                    "numoutlets": 5,
                    "outlettype": [ "preset", "int", "preset", "int", "" ],
                    "patching_rect": [ 457.0, 345.0, 165.0, 105.0 ],
                    "pattrstorage": "midiOutDemo"
                }
            },
            {
                "box": {
                    "id": "obj-12",
                    "maxclass": "newobj",
                    "numinlets": 1,
                    "numoutlets": 4,
                    "outlettype": [ "", "", "", "" ],
                    "patching_rect": [ 457.0, 269.0, 56.0, 22.0 ],
                    "text": "autopattr",
                    "varname": "u208013283"
                }
            },
            {
                "box": {
                    "bgmode": 0,
                    "border": 0,
                    "clickthrough": 0,
                    "enablehscroll": 0,
                    "enablevscroll": 0,
                    "id": "obj-11",
                    "lockeddragscroll": 0,
                    "lockedsize": 0,
                    "maxclass": "bpatcher",
                    "name": "MultiModTrigger.maxpat",
                    "numinlets": 1,
                    "numoutlets": 2,
                    "offset": [ 0.0, 0.0 ],
                    "outlettype": [ "bang", "bang" ],
                    "patching_rect": [ 654.0, 735.0, 100.0, 301.0 ],
                    "varname": "MultiModTrigger[5]",
                    "viewvisibility": 1
                }
            },
            {
                "box": {
                    "bgmode": 0,
                    "border": 0,
                    "clickthrough": 0,
                    "enablehscroll": 0,
                    "enablevscroll": 0,
                    "id": "obj-10",
                    "lockeddragscroll": 0,
                    "lockedsize": 0,
                    "maxclass": "bpatcher",
                    "name": "MultiModTrigger.maxpat",
                    "numinlets": 1,
                    "numoutlets": 2,
                    "offset": [ 0.0, 0.0 ],
                    "outlettype": [ "bang", "bang" ],
                    "patching_rect": [ 525.0, 735.0, 100.0, 301.0 ],
                    "varname": "MultiModTrigger[4]",
                    "viewvisibility": 1
                }
            },
            {
                "box": {
                    "bgmode": 0,
                    "border": 0,
                    "clickthrough": 0,
                    "enablehscroll": 0,
                    "enablevscroll": 0,
                    "id": "obj-9",
                    "lockeddragscroll": 0,
                    "lockedsize": 0,
                    "maxclass": "bpatcher",
                    "name": "MultiModTrigger.maxpat",
                    "numinlets": 1,
                    "numoutlets": 2,
                    "offset": [ 0.0, 0.0 ],
                    "outlettype": [ "bang", "bang" ],
                    "patching_rect": [ 399.0, 735.0, 100.0, 301.0 ],
                    "varname": "MultiModTrigger[3]",
                    "viewvisibility": 1
                }
            },
            {
                "box": {
                    "bgmode": 0,
                    "border": 0,
                    "clickthrough": 0,
                    "enablehscroll": 0,
                    "enablevscroll": 0,
                    "id": "obj-8",
                    "lockeddragscroll": 0,
                    "lockedsize": 0,
                    "maxclass": "bpatcher",
                    "name": "MultiModTrigger.maxpat",
                    "numinlets": 1,
                    "numoutlets": 2,
                    "offset": [ 0.0, 0.0 ],
                    "outlettype": [ "bang", "bang" ],
                    "patching_rect": [ 270.0, 735.0, 100.0, 301.0 ],
                    "varname": "MultiModTrigger[2]",
                    "viewvisibility": 1
                }
            },
            {
                "box": {
                    "bgmode": 0,
                    "border": 0,
                    "clickthrough": 0,
                    "enablehscroll": 0,
                    "enablevscroll": 0,
                    "id": "obj-7",
                    "lockeddragscroll": 0,
                    "lockedsize": 0,
                    "maxclass": "bpatcher",
                    "name": "MultiModTrigger.maxpat",
                    "numinlets": 1,
                    "numoutlets": 2,
                    "offset": [ 0.0, 0.0 ],
                    "outlettype": [ "bang", "bang" ],
                    "patching_rect": [ 144.0, 735.0, 100.0, 301.0 ],
                    "varname": "MultiModTrigger[1]",
                    "viewvisibility": 1
                }
            },
            {
                "box": {
                    "bgmode": 0,
                    "border": 0,
                    "clickthrough": 0,
                    "enablehscroll": 0,
                    "enablevscroll": 0,
                    "id": "obj-6",
                    "lockeddragscroll": 0,
                    "lockedsize": 0,
                    "maxclass": "bpatcher",
                    "name": "MultiModTrigger.maxpat",
                    "numinlets": 1,
                    "numoutlets": 2,
                    "offset": [ 0.0, 0.0 ],
                    "outlettype": [ "bang", "bang" ],
                    "patching_rect": [ 15.0, 735.0, 100.0, 301.0 ],
                    "varname": "MultiModTrigger",
                    "viewvisibility": 1
                }
            },
            {
                "box": {
                    "bgmode": 0,
                    "border": 0,
                    "clickthrough": 0,
                    "enablehscroll": 0,
                    "enablevscroll": 0,
                    "id": "obj-5",
                    "lockeddragscroll": 0,
                    "lockedsize": 0,
                    "maxclass": "bpatcher",
                    "name": "GradientTrigger.maxpat",
                    "numinlets": 1,
                    "numoutlets": 2,
                    "offset": [ 0.0, 0.0 ],
                    "outlettype": [ "bang", "bang" ],
                    "patching_rect": [ 525.0, 600.0, 148.0, 94.0 ],
                    "viewvisibility": 1
                }
            },
            {
                "box": {
                    "bgmode": 0,
                    "border": 0,
                    "clickthrough": 0,
                    "enablehscroll": 0,
                    "enablevscroll": 0,
                    "id": "obj-4",
                    "lockeddragscroll": 0,
                    "lockedsize": 0,
                    "maxclass": "bpatcher",
                    "name": "GradientTrigger.maxpat",
                    "numinlets": 1,
                    "numoutlets": 2,
                    "offset": [ 0.0, 0.0 ],
                    "outlettype": [ "bang", "bang" ],
                    "patching_rect": [ 270.0, 600.0, 148.0, 94.0 ],
                    "viewvisibility": 1
                }
            },
            {
                "box": {
                    "bgmode": 0,
                    "border": 0,
                    "clickthrough": 0,
                    "enablehscroll": 0,
                    "enablevscroll": 0,
                    "id": "obj-3",
                    "lockeddragscroll": 0,
                    "lockedsize": 0,
                    "maxclass": "bpatcher",
                    "name": "GradientTrigger.maxpat",
                    "numinlets": 1,
                    "numoutlets": 2,
                    "offset": [ 0.0, 0.0 ],
                    "outlettype": [ "bang", "bang" ],
                    "patching_rect": [ 15.0, 600.0, 148.0, 94.0 ],
                    "viewvisibility": 1
                }
            },
            {
                "box": {
                    "bgmode": 0,
                    "border": 0,
                    "clickthrough": 0,
                    "enablehscroll": 0,
                    "enablevscroll": 0,
                    "id": "obj-2",
                    "lockeddragscroll": 0,
                    "lockedsize": 0,
                    "maxclass": "bpatcher",
                    "name": "AttractorDisplay.maxpat",
                    "numinlets": 3,
                    "numoutlets": 0,
                    "offset": [ 0.0, 0.0 ],
                    "patching_rect": [ 135.0, 345.0, 270.0, 202.0 ],
                    "viewvisibility": 1
                }
            },
            {
                "box": {
                    "id": "obj-1",
                    "maxclass": "newobj",
                    "numinlets": 1,
                    "numoutlets": 6,
                    "outlettype": [ "signal", "signal", "signal", "signal", "signal", "signal" ],
                    "patching_rect": [ 15.0, 240.0, 111.0, 22.0 ],
                    "text": "spt.attractor.dadras"
                }
            },
            {
                "box": {
                    "attr": "a",
                    "id": "obj-19",
                    "maxclass": "attrui",
                    "numinlets": 1,
                    "numoutlets": 1,
                    "outlettype": [ "" ],
                    "parameter_enable": 0,
                    "patching_rect": [ 15.0, 84.0, 150.0, 22.0 ]
                }
            }
        ],
        "lines": [
            {
                "patchline": {
                    "destination": [ "obj-2", 2 ],
                    "midpoints": [ 61.3, 342.0, 395.5, 342.0 ],
                    "order": 0,
                    "source": [ "obj-1", 2 ]
                }
            },
            {
                "patchline": {
                    "destination": [ "obj-2", 1 ],
                    "midpoints": [ 42.9, 342.0, 270.0, 342.0 ],
                    "order": 1,
                    "source": [ "obj-1", 1 ]
                }
            },
            {
                "patchline": {
                    "destination": [ "obj-2", 0 ],
                    "midpoints": [ 24.5, 342.0, 144.5, 342.0 ],
                    "order": 2,
                    "source": [ "obj-1", 0 ]
                }
            },
            {
                "patchline": {
                    "destination": [ "obj-22", 2 ],
                    "midpoints": [ 61.3, 285.0, 190.5, 285.0 ],
                    "order": 1,
                    "source": [ "obj-1", 2 ]
                }
            },
            {
                "patchline": {
                    "destination": [ "obj-22", 1 ],
                    "midpoints": [ 42.9, 285.0, 167.5, 285.0 ],
                    "order": 0,
                    "source": [ "obj-1", 1 ]
                }
            },
            {
                "patchline": {
                    "destination": [ "obj-22", 0 ],
                    "midpoints": [ 24.5, 285.0, 144.5, 285.0 ],
                    "order": 0,
                    "source": [ "obj-1", 0 ]
                }
            },
            {
                "patchline": {
                    "destination": [ "obj-3", 0 ],
                    "order": 1,
                    "source": [ "obj-1", 0 ]
                }
            },
            {
                "patchline": {
                    "destination": [ "obj-4", 0 ],
                    "midpoints": [ 42.9, 585.0, 279.5, 585.0 ],
                    "order": 2,
                    "source": [ "obj-1", 1 ]
                }
            },
            {
                "patchline": {
                    "destination": [ "obj-5", 0 ],
                    "midpoints": [ 61.3, 585.0, 534.5, 585.0 ],
                    "order": 2,
                    "source": [ "obj-1", 2 ]
                }
            },
            {
                "patchline": {
                    "destination": [ "obj-20", 0 ],
                    "source": [ "obj-10", 0 ]
                }
            },
            {
                "patchline": {
                    "destination": [ "obj-21", 0 ],
                    "source": [ "obj-11", 0 ]
                }
            },
            {
                "patchline": {
                    "destination": [ "obj-1", 0 ],
                    "midpoints": [ 24.5, 108.0, 0.0, 108.0, 0.0, 237.0, 24.5, 237.0 ],
                    "source": [ "obj-19", 0 ]
                }
            },
            {
                "patchline": {
                    "destination": [ "obj-13", 0 ],
                    "source": [ "obj-23", 0 ]
                }
            },
            {
                "patchline": {
                    "destination": [ "obj-1", 0 ],
                    "midpoints": [ 24.5, 135.0, 0.0, 135.0, 0.0, 237.0, 24.5, 237.0 ],
                    "source": [ "obj-25", 0 ]
                }
            },
            {
                "patchline": {
                    "destination": [ "obj-1", 0 ],
                    "midpoints": [ 24.5, 165.0, 0.0, 165.0, 0.0, 237.0, 24.5, 237.0 ],
                    "source": [ "obj-27", 0 ]
                }
            },
            {
                "patchline": {
                    "destination": [ "obj-1", 0 ],
                    "midpoints": [ 24.5, 192.0, 12.0, 192.0, 12.0, 234.0, 24.5, 234.0 ],
                    "source": [ "obj-28", 0 ]
                }
            },
            {
                "patchline": {
                    "destination": [ "obj-1", 0 ],
                    "midpoints": [ 24.5, 219.0, 24.5, 219.0 ],
                    "source": [ "obj-29", 0 ]
                }
            },
            {
                "patchline": {
                    "destination": [ "obj-6", 0 ],
                    "source": [ "obj-3", 0 ]
                }
            },
            {
                "patchline": {
                    "destination": [ "obj-7", 0 ],
                    "source": [ "obj-3", 1 ]
                }
            },
            {
                "patchline": {
                    "destination": [ "obj-8", 0 ],
                    "source": [ "obj-4", 0 ]
                }
            },
            {
                "patchline": {
                    "destination": [ "obj-9", 0 ],
                    "source": [ "obj-4", 1 ]
                }
            },
            {
                "patchline": {
                    "destination": [ "obj-10", 0 ],
                    "source": [ "obj-5", 0 ]
                }
            },
            {
                "patchline": {
                    "destination": [ "obj-11", 0 ],
                    "source": [ "obj-5", 1 ]
                }
            },
            {
                "patchline": {
                    "destination": [ "obj-15", 0 ],
                    "source": [ "obj-6", 0 ]
                }
            },
            {
                "patchline": {
                    "destination": [ "obj-16", 0 ],
                    "source": [ "obj-7", 0 ]
                }
            },
            {
                "patchline": {
                    "destination": [ "obj-17", 0 ],
                    "source": [ "obj-8", 0 ]
                }
            },
            {
                "patchline": {
                    "destination": [ "obj-18", 0 ],
                    "source": [ "obj-9", 0 ]
                }
            }
        ],
        "autosave": 0
    }
}