{
    "patcher": {
        "fileversion": 1,
        "appversion": {
            "major": 9,
            "minor": 1,
            "revision": 1,
            "architecture": "x64",
            "modernui": 1
        },
        "classnamespace": "box",
        "rect": [ 368.0, 300.0, 744.0, 480.0 ],
        "openinpresentation": 1,
        "boxes": [
            {
                "box": {
                    "activebgcolor": [ 0.156862745098039, 0.156862745098039, 0.156862745098039, 0.0 ],
                    "activelinecolor": [ 0.9725490196078431, 0.5882352941176471, 0.11764705882352941, 1.0 ],
                    "id": "obj-6",
                    "maxclass": "live.scope~",
                    "numinlets": 2,
                    "numoutlets": 1,
                    "outlettype": [ "bang" ],
                    "patching_rect": [ 43.0, 285.0, 184.0, 68.0 ],
                    "presentation": 1,
                    "presentation_rect": [ 0.0, 0.0, 184.0, 68.0 ]
                }
            },
            {
                "box": {
                    "activebgcolor": [ 0.156862745098039, 0.156862745098039, 0.156862745098039, 0.0 ],
                    "activelinecolor": [ 0.984313725490196, 0.796078431372549, 0.5686274509803921, 1.0 ],
                    "id": "obj-5",
                    "maxclass": "live.scope~",
                    "numinlets": 2,
                    "numoutlets": 1,
                    "outlettype": [ "bang" ],
                    "patching_rect": [ 43.0, 285.0, 184.0, 68.0 ],
                    "presentation": 1,
                    "presentation_rect": [ 0.0, 0.0, 184.0, 68.0 ]
                }
            },
            {
                "box": {
                    "activebgcolor": [ 0.156862745098039, 0.156862745098039, 0.156862745098039, 0.0 ],
                    "activelinecolor": [ 0.5882352941176471, 0.7490196078431373, 0.8196078431372549, 1.0 ],
                    "id": "obj-4",
                    "maxclass": "live.scope~",
                    "numinlets": 2,
                    "numoutlets": 1,
                    "outlettype": [ "bang" ],
                    "patching_rect": [ 43.0, 285.0, 184.0, 68.0 ],
                    "presentation": 1,
                    "presentation_rect": [ 0.0, 0.0, 184.0, 68.0 ]
                }
            },
            {
                "box": {
                    "activelinecolor": [ 0.1530902088, 0.4896173477, 0.6329272389, 1.0 ],
                    "id": "obj-1",
                    "maxclass": "live.scope~",
                    "numinlets": 2,
                    "numoutlets": 1,
                    "outlettype": [ "bang" ],
                    "patching_rect": [ 45.0, 285.0, 184.0, 68.0 ],
                    "presentation": 1,
                    "presentation_rect": [ 2.0, 0.0, 184.0, 68.0 ]
                }
            },
            {
                "box": {
                    "comment": "CtrlSignalR",
                    "id": "obj-37",
                    "index": 0,
                    "maxclass": "inlet",
                    "numinlets": 0,
                    "numoutlets": 1,
                    "outlettype": [ "" ],
                    "patching_rect": [ 565.0, 24.0, 30.0, 30.0 ]
                }
            },
            {
                "box": {
                    "comment": "CtrlSignalL",
                    "id": "obj-36",
                    "index": 0,
                    "maxclass": "inlet",
                    "numinlets": 0,
                    "numoutlets": 1,
                    "outlettype": [ "" ],
                    "patching_rect": [ 429.0, 24.0, 30.0, 30.0 ]
                }
            },
            {
                "box": {
                    "comment": "AudioOutR",
                    "id": "obj-35",
                    "index": 0,
                    "maxclass": "outlet",
                    "numinlets": 1,
                    "numoutlets": 0,
                    "patching_rect": [ 352.0, 205.0, 30.0, 30.0 ]
                }
            },
            {
                "box": {
                    "comment": "AudioOutL",
                    "id": "obj-34",
                    "index": 0,
                    "maxclass": "outlet",
                    "numinlets": 1,
                    "numoutlets": 0,
                    "patching_rect": [ 197.0, 209.0, 30.0, 30.0 ]
                }
            },
            {
                "box": {
                    "comment": "AudioInR",
                    "id": "obj-33",
                    "index": 0,
                    "maxclass": "inlet",
                    "numinlets": 0,
                    "numoutlets": 1,
                    "outlettype": [ "" ],
                    "patching_rect": [ 345.0, 24.0, 30.0, 30.0 ]
                }
            },
            {
                "box": {
                    "comment": "AudioInL",
                    "id": "obj-32",
                    "index": 0,
                    "maxclass": "inlet",
                    "numinlets": 0,
                    "numoutlets": 1,
                    "outlettype": [ "" ],
                    "patching_rect": [ 197.0, 24.0, 30.0, 30.0 ]
                }
            },
            {
                "box": {
                    "id": "obj-26",
                    "maxclass": "newobj",
                    "numinlets": 1,
                    "numoutlets": 1,
                    "outlettype": [ "list" ],
                    "patching_rect": [ 565.0, 144.0, 56.0, 22.0 ],
                    "text": "listfunnel"
                }
            },
            {
                "box": {
                    "id": "obj-27",
                    "maxclass": "newobj",
                    "numinlets": 3,
                    "numoutlets": 1,
                    "outlettype": [ "float" ],
                    "patching_rect": [ 565.0, 171.0, 90.0, 22.0 ],
                    "text": "peek~ panBuf2"
                }
            },
            {
                "box": {
                    "id": "obj-28",
                    "maxclass": "newobj",
                    "numinlets": 2,
                    "numoutlets": 2,
                    "outlettype": [ "", "" ],
                    "patching_rect": [ 565.0, 118.0, 87.0, 22.0 ],
                    "text": "zl.stream 2048"
                }
            },
            {
                "box": {
                    "id": "obj-29",
                    "maxclass": "newobj",
                    "numinlets": 2,
                    "numoutlets": 1,
                    "outlettype": [ "float" ],
                    "patching_rect": [ 565.0, 87.0, 74.0, 22.0 ],
                    "text": "snapshot~ 1"
                }
            },
            {
                "box": {
                    "id": "obj-25",
                    "maxclass": "newobj",
                    "numinlets": 1,
                    "numoutlets": 2,
                    "outlettype": [ "float", "bang" ],
                    "patching_rect": [ 429.0, 257.0, 175.0, 22.0 ],
                    "text": "buffer~ panBuf2 @samps 2048"
                }
            },
            {
                "box": {
                    "id": "obj-14",
                    "maxclass": "newobj",
                    "numinlets": 1,
                    "numoutlets": 1,
                    "outlettype": [ "list" ],
                    "patching_rect": [ 429.0, 144.0, 56.0, 22.0 ],
                    "text": "listfunnel"
                }
            },
            {
                "box": {
                    "id": "obj-13",
                    "maxclass": "newobj",
                    "numinlets": 3,
                    "numoutlets": 1,
                    "outlettype": [ "float" ],
                    "patching_rect": [ 429.0, 171.0, 90.0, 22.0 ],
                    "text": "peek~ panBuf1"
                }
            },
            {
                "box": {
                    "id": "obj-8",
                    "maxclass": "newobj",
                    "numinlets": 2,
                    "numoutlets": 2,
                    "outlettype": [ "", "" ],
                    "patching_rect": [ 429.0, 118.0, 87.0, 22.0 ],
                    "text": "zl.stream 2048"
                }
            },
            {
                "box": {
                    "id": "obj-7",
                    "maxclass": "newobj",
                    "numinlets": 2,
                    "numoutlets": 1,
                    "outlettype": [ "float" ],
                    "patching_rect": [ 429.0, 87.0, 74.0, 22.0 ],
                    "text": "snapshot~ 1"
                }
            },
            {
                "box": {
                    "id": "obj-3",
                    "maxclass": "newobj",
                    "numinlets": 1,
                    "numoutlets": 2,
                    "outlettype": [ "float", "bang" ],
                    "patching_rect": [ 429.0, 230.0, 175.0, 22.0 ],
                    "text": "buffer~ panBuf1 @samps 2048"
                }
            },
            {
                "box": {
                    "id": "obj-2",
                    "maxclass": "newobj",
                    "numinlets": 2,
                    "numoutlets": 2,
                    "outlettype": [ "signal", "signal" ],
                    "patching_rect": [ 197.0, 159.0, 174.0, 22.0 ],
                    "text": "pfft~ StrangePanStereo 4096 2"
                }
            }
        ],
        "lines": [
            {
                "patchline": {
                    "destination": [ "obj-13", 0 ],
                    "source": [ "obj-14", 0 ]
                }
            },
            {
                "patchline": {
                    "destination": [ "obj-34", 0 ],
                    "source": [ "obj-2", 0 ]
                }
            },
            {
                "patchline": {
                    "destination": [ "obj-35", 0 ],
                    "source": [ "obj-2", 1 ]
                }
            },
            {
                "patchline": {
                    "destination": [ "obj-27", 0 ],
                    "source": [ "obj-26", 0 ]
                }
            },
            {
                "patchline": {
                    "destination": [ "obj-26", 0 ],
                    "source": [ "obj-28", 0 ]
                }
            },
            {
                "patchline": {
                    "destination": [ "obj-28", 0 ],
                    "source": [ "obj-29", 0 ]
                }
            },
            {
                "patchline": {
                    "destination": [ "obj-1", 0 ],
                    "order": 1,
                    "source": [ "obj-32", 0 ]
                }
            },
            {
                "patchline": {
                    "destination": [ "obj-2", 0 ],
                    "order": 0,
                    "source": [ "obj-32", 0 ]
                }
            },
            {
                "patchline": {
                    "destination": [ "obj-2", 1 ],
                    "order": 0,
                    "source": [ "obj-33", 0 ]
                }
            },
            {
                "patchline": {
                    "destination": [ "obj-6", 0 ],
                    "order": 1,
                    "source": [ "obj-33", 0 ]
                }
            },
            {
                "patchline": {
                    "destination": [ "obj-4", 0 ],
                    "order": 1,
                    "source": [ "obj-36", 0 ]
                }
            },
            {
                "patchline": {
                    "destination": [ "obj-7", 0 ],
                    "order": 0,
                    "source": [ "obj-36", 0 ]
                }
            },
            {
                "patchline": {
                    "destination": [ "obj-29", 0 ],
                    "order": 0,
                    "source": [ "obj-37", 0 ]
                }
            },
            {
                "patchline": {
                    "destination": [ "obj-5", 0 ],
                    "order": 1,
                    "source": [ "obj-37", 0 ]
                }
            },
            {
                "patchline": {
                    "destination": [ "obj-8", 0 ],
                    "source": [ "obj-7", 0 ]
                }
            },
            {
                "patchline": {
                    "destination": [ "obj-14", 0 ],
                    "source": [ "obj-8", 0 ]
                }
            }
        ],
        "autosave": 0
    }
}