{
    "patcher": {
        "fileversion": 1,
        "appversion": {
            "major": 9,
            "minor": 1,
            "revision": 1,
            "architecture": "x64",
            "modernui": 1
        },
        "classnamespace": "box",
        "rect": [ 34.0, 99.0, 1402.0, 823.0 ],
        "boxes": [
            {
                "box": {
                    "id": "obj-11",
                    "linecount": 2,
                    "maxclass": "comment",
                    "numinlets": 1,
                    "numoutlets": 0,
                    "patching_rect": [ 599.0, 816.0, 318.0, 33.0 ],
                    "text": "Some utility patchers and snippets that may come in useful"
                }
            },
            {
                "box": {
                    "id": "obj-15",
                    "maxclass": "comment",
                    "numinlets": 1,
                    "numoutlets": 0,
                    "patching_rect": [ 798.0, 780.0, 150.0, 20.0 ],
                    "text": "Read More"
                }
            },
            {
                "box": {
                    "id": "obj-16",
                    "maxclass": "button",
                    "numinlets": 1,
                    "numoutlets": 1,
                    "outlettype": [ "bang" ],
                    "parameter_enable": 0,
                    "patching_rect": [ 768.0, 779.0, 24.0, 24.0 ]
                }
            },
            {
                "box": {
                    "hidden": 1,
                    "id": "obj-18",
                    "maxclass": "message",
                    "numinlets": 2,
                    "numoutlets": 1,
                    "outlettype": [ "" ],
                    "patching_rect": [ 874.0, 775.0, 155.0, 22.0 ],
                    "text": "load DisplayUtilities.maxpat"
                }
            },
            {
                "box": {
                    "fontface": 1,
                    "fontsize": 16.0,
                    "id": "obj-19",
                    "maxclass": "comment",
                    "numinlets": 1,
                    "numoutlets": 0,
                    "patching_rect": [ 601.0, 778.0, 150.0, 24.0 ],
                    "text": "Utilities:"
                }
            },
            {
                "box": {
                    "angle": 270.0,
                    "grad1": [ 0.9725490196078431, 0.5882352941176471, 0.11764705882352941, 1.0 ],
                    "grad2": [ 0.172137149796092, 0.172137100044002, 0.172137113045018, 1.0 ],
                    "id": "obj-10",
                    "maxclass": "panel",
                    "mode": 1,
                    "numinlets": 1,
                    "numoutlets": 0,
                    "patching_rect": [ 570.0, 725.0, 397.0, 169.0 ],
                    "presentation": 1,
                    "presentation_rect": [ 558.0, 725.0, 397.0, 169.0 ],
                    "proportion": 0.5
                }
            },
            {
                "box": {
                    "id": "obj-45",
                    "linecount": 3,
                    "maxclass": "comment",
                    "numinlets": 1,
                    "numoutlets": 0,
                    "patching_rect": [ 68.0, 821.0, 369.0, 60.0 ],
                    "text": "Feedback is avaliable in the toolkit in 2 different ways - a convinient patcher for audio feedback, with built in trigger, slew, envelope and midi out, and two recurrence based feedback utilities\n"
                }
            },
            {
                "box": {
                    "id": "obj-44",
                    "maxclass": "comment",
                    "numinlets": 1,
                    "numoutlets": 0,
                    "patching_rect": [ 254.0, 787.0, 150.0, 20.0 ],
                    "text": "Read More"
                }
            },
            {
                "box": {
                    "id": "obj-43",
                    "linecount": 3,
                    "maxclass": "comment",
                    "numinlets": 1,
                    "numoutlets": 0,
                    "patching_rect": [ 605.0, 623.0, 369.0, 47.0 ],
                    "text": "Rhythm Modifiers allow you to take a stream of triggers and manipulate them in a multitude of ways, from arithmetic  manipulation, to quantization and more."
                }
            },
            {
                "box": {
                    "id": "obj-42",
                    "linecount": 2,
                    "maxclass": "comment",
                    "numinlets": 1,
                    "numoutlets": 0,
                    "patching_rect": [ 59.0, 630.0, 369.0, 33.0 ],
                    "text": "Rhythm makers take a signal and generate triggers. This can either be threshold based, or based on a change in gradient."
                }
            },
            {
                "box": {
                    "id": "obj-41",
                    "linecount": 2,
                    "maxclass": "comment",
                    "numinlets": 1,
                    "numoutlets": 0,
                    "patching_rect": [ 606.0, 455.0, 366.0, 33.0 ],
                    "text": "Signal shapers involves manipulating the signals, by way of scaling, inversion, smoothing or folding"
                }
            },
            {
                "box": {
                    "id": "obj-40",
                    "maxclass": "comment",
                    "numinlets": 1,
                    "numoutlets": 0,
                    "patching_rect": [ 802.0, 583.0, 150.0, 20.0 ],
                    "text": "Read More"
                }
            },
            {
                "box": {
                    "id": "obj-39",
                    "maxclass": "comment",
                    "numinlets": 1,
                    "numoutlets": 0,
                    "patching_rect": [ 252.0, 592.0, 150.0, 20.0 ],
                    "text": "Read More"
                }
            },
            {
                "box": {
                    "id": "obj-38",
                    "maxclass": "comment",
                    "numinlets": 1,
                    "numoutlets": 0,
                    "patching_rect": [ 798.0, 418.0, 150.0, 20.0 ],
                    "text": "Read More"
                }
            },
            {
                "box": {
                    "id": "obj-37",
                    "maxclass": "comment",
                    "numinlets": 1,
                    "numoutlets": 0,
                    "patching_rect": [ 248.0, 416.0, 150.0, 20.0 ],
                    "text": "Read More"
                }
            },
            {
                "box": {
                    "id": "obj-35",
                    "linecount": 3,
                    "maxclass": "comment",
                    "numinlets": 1,
                    "numoutlets": 0,
                    "patching_rect": [ 56.0, 448.0, 366.0, 47.0 ],
                    "text": "The signal generators in SPT are the strange attractors themselves. Several attractors are provided as externals, and a simple Gen~ patch is provided making it very easy to add your own"
                }
            },
            {
                "box": {
                    "id": "obj-33",
                    "maxclass": "button",
                    "numinlets": 1,
                    "numoutlets": 1,
                    "outlettype": [ "bang" ],
                    "parameter_enable": 0,
                    "patching_rect": [ 224.0, 785.0, 24.0, 24.0 ]
                }
            },
            {
                "box": {
                    "id": "obj-32",
                    "maxclass": "button",
                    "numinlets": 1,
                    "numoutlets": 1,
                    "outlettype": [ "bang" ],
                    "parameter_enable": 0,
                    "patching_rect": [ 772.0, 581.0, 24.0, 24.0 ]
                }
            },
            {
                "box": {
                    "id": "obj-31",
                    "maxclass": "button",
                    "numinlets": 1,
                    "numoutlets": 1,
                    "outlettype": [ "bang" ],
                    "parameter_enable": 0,
                    "patching_rect": [ 222.0, 590.0, 24.0, 24.0 ]
                }
            },
            {
                "box": {
                    "id": "obj-30",
                    "maxclass": "button",
                    "numinlets": 1,
                    "numoutlets": 1,
                    "outlettype": [ "bang" ],
                    "parameter_enable": 0,
                    "patching_rect": [ 772.0, 416.0, 24.0, 24.0 ]
                }
            },
            {
                "box": {
                    "hidden": 1,
                    "id": "obj-29",
                    "maxclass": "message",
                    "numinlets": 2,
                    "numoutlets": 1,
                    "outlettype": [ "" ],
                    "patching_rect": [ 426.0, 786.0, 130.0, 22.0 ],
                    "text": "load Feedback.maxpat"
                }
            },
            {
                "box": {
                    "fontface": 1,
                    "fontsize": 16.0,
                    "id": "obj-28",
                    "maxclass": "comment",
                    "numinlets": 1,
                    "numoutlets": 0,
                    "patching_rect": [ 69.0, 785.0, 91.0, 24.0 ],
                    "text": "Feedback:"
                }
            },
            {
                "box": {
                    "hidden": 1,
                    "id": "obj-24",
                    "maxclass": "message",
                    "numinlets": 2,
                    "numoutlets": 1,
                    "outlettype": [ "" ],
                    "patching_rect": [ 879.0, 582.0, 167.0, 22.0 ],
                    "text": "load RhythmModifiers.maxpat"
                }
            },
            {
                "box": {
                    "hidden": 1,
                    "id": "obj-23",
                    "maxclass": "message",
                    "numinlets": 2,
                    "numoutlets": 1,
                    "outlettype": [ "" ],
                    "patching_rect": [ 332.0, 596.0, 158.0, 22.0 ],
                    "text": "load RhythmMakers.maxpat"
                }
            },
            {
                "box": {
                    "hidden": 1,
                    "id": "obj-21",
                    "maxclass": "message",
                    "numinlets": 2,
                    "numoutlets": 1,
                    "outlettype": [ "" ],
                    "patching_rect": [ 867.0, 418.0, 155.0, 22.0 ],
                    "text": "load SignalShapers.maxpat"
                }
            },
            {
                "box": {
                    "hidden": 1,
                    "id": "obj-20",
                    "maxclass": "message",
                    "numinlets": 2,
                    "numoutlets": 1,
                    "outlettype": [ "" ],
                    "patching_rect": [ 321.0, 417.0, 128.0, 22.0 ],
                    "text": "load Attractors.maxpat"
                }
            },
            {
                "box": {
                    "hidden": 1,
                    "id": "obj-17",
                    "maxclass": "newobj",
                    "numinlets": 1,
                    "numoutlets": 1,
                    "outlettype": [ "" ],
                    "patching_rect": [ 490.0, 537.0, 51.0, 22.0 ],
                    "text": "pcontrol"
                }
            },
            {
                "box": {
                    "id": "obj-13",
                    "maxclass": "button",
                    "numinlets": 1,
                    "numoutlets": 1,
                    "outlettype": [ "bang" ],
                    "parameter_enable": 0,
                    "patching_rect": [ 222.0, 414.0, 24.0, 24.0 ]
                }
            },
            {
                "box": {
                    "fontsize": 16.0,
                    "id": "obj-5",
                    "linecount": 11,
                    "maxclass": "comment",
                    "numinlets": 1,
                    "numoutlets": 0,
                    "patching_rect": [ 45.0, 118.0, 926.0, 203.0 ],
                    "text": "The strange pulse toolkit is a collection of externals, patchers and snippets that allow you to explore the potential use of strange attractors in your Max instruments.\n\nThere is primarily a focus on rhythmical exploration, as well as the use of feedback, both in the audio domain and via the recurrence analysis algorithms provided, allowing instruments to monitor and adapt to their own state. \n\nSome of the patchers and snippets are simple wrappers around existing Max functionailty, but they allow fast exploration and iteration of ideas.\n\nThis toolkit facilitates building instruments that embed these strange attractors into the very core of your instrument, not just adding a bit of swing, or 'random' modulation. "
                }
            },
            {
                "box": {
                    "id": "obj-1",
                    "maxclass": "live.line",
                    "numinlets": 1,
                    "numoutlets": 0,
                    "patching_rect": [ 47.0, 357.0, 924.0, 5.0 ],
                    "presentation": 1,
                    "presentation_rect": [ 43.0, 212.0, 771.0, 5.0 ]
                }
            },
            {
                "box": {
                    "fontface": 1,
                    "fontsize": 16.0,
                    "id": "obj-25",
                    "maxclass": "comment",
                    "numinlets": 1,
                    "numoutlets": 0,
                    "patching_rect": [ 607.0, 585.0, 150.0, 24.0 ],
                    "text": "Rhythm Modifiers:"
                }
            },
            {
                "box": {
                    "fontface": 1,
                    "fontsize": 16.0,
                    "id": "obj-14",
                    "maxclass": "comment",
                    "numinlets": 1,
                    "numoutlets": 0,
                    "patching_rect": [ 59.0, 590.0, 135.0, 24.0 ],
                    "text": "Rhythm Makers:"
                }
            },
            {
                "box": {
                    "fontface": 1,
                    "fontsize": 16.0,
                    "id": "obj-12",
                    "maxclass": "comment",
                    "numinlets": 1,
                    "numoutlets": 0,
                    "patching_rect": [ 606.0, 416.0, 140.0, 24.0 ],
                    "text": "Signal Shapers:"
                }
            },
            {
                "box": {
                    "fontface": 1,
                    "fontsize": 16.0,
                    "id": "obj-2",
                    "maxclass": "comment",
                    "numinlets": 1,
                    "numoutlets": 0,
                    "patching_rect": [ 56.0, 414.0, 164.5, 24.0 ],
                    "text": "Signal Generators:"
                }
            },
            {
                "box": {
                    "id": "obj-90",
                    "maxclass": "live.line",
                    "numinlets": 1,
                    "numoutlets": 0,
                    "patching_rect": [ 45.0, 90.0, 927.0, 17.0 ],
                    "presentation": 1,
                    "presentation_rect": [ 180.0, 180.0, 771.0, 5.0 ]
                }
            },
            {
                "box": {
                    "fontface": 1,
                    "fontsize": 12.0,
                    "id": "obj-76",
                    "maxclass": "comment",
                    "numinlets": 1,
                    "numoutlets": 0,
                    "patching_rect": [ 45.0, 68.0, 349.0, 20.0 ],
                    "text": "written by Max Worgan (c) 2025,MIT Licence"
                }
            },
            {
                "box": {
                    "fontface": 0,
                    "fontname": "Arial",
                    "fontsize": 40.0,
                    "id": "obj-22",
                    "maxclass": "comment",
                    "numinlets": 1,
                    "numoutlets": 0,
                    "patching_rect": [ 45.0, 15.0, 393.0, 51.0 ],
                    "text": "Strange Pulse Toolkit",
                    "textcolor": [ 0.952941176470588, 0.447058823529412, 0.172549019607843, 1.0 ]
                }
            },
            {
                "box": {
                    "angle": 270.0,
                    "grad1": [ 0.1530902088, 0.4896173477, 0.6329272389, 1.0 ],
                    "grad2": [ 0.172137149796092, 0.172137100044002, 0.172137113045018, 1.0 ],
                    "id": "obj-4",
                    "maxclass": "panel",
                    "mode": 1,
                    "numinlets": 1,
                    "numoutlets": 0,
                    "patching_rect": [ 47.0, 367.0, 397.0, 169.0 ],
                    "presentation": 1,
                    "presentation_rect": [ 36.0, 367.0, 397.0, 169.0 ],
                    "proportion": 0.5
                }
            },
            {
                "box": {
                    "angle": 270.0,
                    "grad1": [ 0.976470588235294, 0.780392156862745, 0.309803921568627, 1.0 ],
                    "grad2": [ 0.172137149796092, 0.172137100044002, 0.172137113045018, 1.0 ],
                    "id": "obj-6",
                    "maxclass": "panel",
                    "mode": 1,
                    "numinlets": 1,
                    "numoutlets": 0,
                    "patching_rect": [ 570.0, 367.0, 397.0, 169.0 ],
                    "presentation": 1,
                    "presentation_rect": [ 563.0, 370.0, 397.0, 169.0 ],
                    "proportion": 0.5
                }
            },
            {
                "box": {
                    "angle": 270.0,
                    "grad1": [ 0.976470588235294, 0.254901960784314, 0.266666666666667, 1.0 ],
                    "grad2": [ 0.172137149796092, 0.172137100044002, 0.172137113045018, 1.0 ],
                    "id": "obj-7",
                    "maxclass": "panel",
                    "mode": 1,
                    "numinlets": 1,
                    "numoutlets": 0,
                    "patching_rect": [ 47.0, 544.0, 397.0, 169.0 ],
                    "presentation": 1,
                    "presentation_rect": [ 37.0, 546.0, 397.0, 169.0 ],
                    "proportion": 0.5
                }
            },
            {
                "box": {
                    "angle": 270.0,
                    "grad1": [ 0.2429931462, 0.5804384947, 0.4775273204, 1.0 ],
                    "grad2": [ 0.172137149796092, 0.172137100044002, 0.172137113045018, 1.0 ],
                    "id": "obj-8",
                    "maxclass": "panel",
                    "mode": 1,
                    "numinlets": 1,
                    "numoutlets": 0,
                    "patching_rect": [ 570.0, 544.0, 397.0, 169.0 ],
                    "presentation": 1,
                    "presentation_rect": [ 559.0, 542.0, 397.0, 169.0 ],
                    "proportion": 0.5
                }
            },
            {
                "box": {
                    "angle": 270.0,
                    "grad1": [ 0.9764705882352941, 0.5176470588235295, 0.2901960784313726, 1.0 ],
                    "grad2": [ 0.172137149796092, 0.172137100044002, 0.172137113045018, 1.0 ],
                    "id": "obj-9",
                    "maxclass": "panel",
                    "mode": 1,
                    "numinlets": 1,
                    "numoutlets": 0,
                    "patching_rect": [ 47.0, 725.0, 397.0, 169.0 ],
                    "presentation": 1,
                    "presentation_rect": [ 35.0, 725.0, 397.0, 169.0 ],
                    "proportion": 0.5
                }
            }
        ],
        "lines": [
            {
                "patchline": {
                    "destination": [ "obj-20", 0 ],
                    "hidden": 1,
                    "source": [ "obj-13", 0 ]
                }
            },
            {
                "patchline": {
                    "destination": [ "obj-18", 0 ],
                    "hidden": 1,
                    "source": [ "obj-16", 0 ]
                }
            },
            {
                "patchline": {
                    "destination": [ "obj-17", 0 ],
                    "hidden": 1,
                    "source": [ "obj-18", 0 ]
                }
            },
            {
                "patchline": {
                    "destination": [ "obj-17", 0 ],
                    "hidden": 1,
                    "source": [ "obj-20", 0 ]
                }
            },
            {
                "patchline": {
                    "destination": [ "obj-17", 0 ],
                    "hidden": 1,
                    "source": [ "obj-21", 0 ]
                }
            },
            {
                "patchline": {
                    "destination": [ "obj-17", 0 ],
                    "hidden": 1,
                    "source": [ "obj-23", 0 ]
                }
            },
            {
                "patchline": {
                    "destination": [ "obj-17", 0 ],
                    "hidden": 1,
                    "source": [ "obj-24", 0 ]
                }
            },
            {
                "patchline": {
                    "destination": [ "obj-17", 0 ],
                    "hidden": 1,
                    "source": [ "obj-29", 0 ]
                }
            },
            {
                "patchline": {
                    "destination": [ "obj-21", 0 ],
                    "hidden": 1,
                    "source": [ "obj-30", 0 ]
                }
            },
            {
                "patchline": {
                    "destination": [ "obj-23", 0 ],
                    "hidden": 1,
                    "source": [ "obj-31", 0 ]
                }
            },
            {
                "patchline": {
                    "destination": [ "obj-24", 0 ],
                    "hidden": 1,
                    "source": [ "obj-32", 0 ]
                }
            },
            {
                "patchline": {
                    "destination": [ "obj-29", 0 ],
                    "hidden": 1,
                    "source": [ "obj-33", 0 ]
                }
            }
        ],
        "autosave": 0,
        "styles": [
            {
                "name": "Audiomix",
                "default": {
                    "bgfillcolor": {
                        "angle": 270.0,
                        "color": [ 0.290196, 0.309804, 0.301961, 1.0 ],
                        "color1": [ 0.376471, 0.384314, 0.4, 1.0 ],
                        "color2": [ 0.290196, 0.309804, 0.301961, 1.0 ],
                        "proportion": 0.39,
                        "type": "gradient"
                    }
                },
                "parentstyle": "",
                "multi": 0
            }
        ]
    }
}